<?xml version="1.0" encoding="UTF-8" standalone="no"?>
<!-- Created with Inkscape (http://www.inkscape.org/) -->

<svg
   width="20.000196mm"
   height="20.233183mm"
   viewBox="0 0 20.000196 20.233183"
   version="1.1"
   id="svg1"
   inkscape:version="1.3 (0e150ed6c4, 2023-07-21)"
   sodipodi:docname="stempel_ring_druk.svg"
   inkscape:export-filename="LOGO_ring.webp"
   inkscape:export-xdpi="600"
   inkscape:export-ydpi="600"
   xmlns:inkscape="http://www.inkscape.org/namespaces/inkscape"
   xmlns:sodipodi="http://sodipodi.sourceforge.net/DTD/sodipodi-0.dtd"
   xmlns="http://www.w3.org/2000/svg"
   xmlns:svg="http://www.w3.org/2000/svg">
  <sodipodi:namedview
     id="namedview1"
     pagecolor="#ffffff"
     bordercolor="#666666"
     borderopacity="1.0"
     inkscape:showpageshadow="2"
     inkscape:pageopacity="0.0"
     inkscape:pagecheckerboard="0"
     inkscape:deskcolor="#d1d1d1"
     inkscape:document-units="mm"
     inkscape:zoom="4.0017116"
     inkscape:cx="69.345327"
     inkscape:cy="61.348749"
     inkscape:window-width="2560"
     inkscape:window-height="1369"
     inkscape:window-x="-8"
     inkscape:window-y="-8"
     inkscape:window-maximized="1"
     inkscape:current-layer="layer1" />
  <defs
     id="defs1" />
  <g
     inkscape:label="Warstwa 1"
     inkscape:groupmode="layer"
     id="layer1"
     transform="translate(-9.692659,-9.8773417)">
    <path
       id="path1835"
       style="display:inline;fill:#000000;stroke-width:0.0312513"
       d="m 18.737085,9.8773416 c -0.19528,2.5e-4 -0.44486,0.0109 -0.8201,0.0326 -0.41079,0.0237 -1.18654,0.1797604 -1.57045,0.3157404 -0.538,0.19055 -0.87369,0.31426 -1.07849,0.39687 -0.2427,0.0979 -1.03677,0.55467 -1.22628,0.70539 -0.66704,0.53046 -1.02056,0.89265 -1.38389,1.41852 -0.29636,0.42896 -0.71004,1.13921 -0.71004,1.21904 0,0.0512 -0.22393,0.53732 -0.27233,0.59118 -0.0266,0.0297 -0.0605,0.0466 -0.0749,0.0377 -0.0144,-0.009 -0.0895,0.11101 -0.16743,0.26614 -0.0991,0.1972 -0.21966,0.3691 -0.4005,0.57154 -0.14224,0.15925 -0.30848,0.36694 -0.36948,0.46147 -0.22024,0.34097 -0.52319,1.09736 -0.6692095,1.67173 -0.0306,0.12031 -0.0886,0.34553 -0.1286802,0.50023 -0.12273,0.47298 -0.1718,0.919 -0.1726,1.5751 -9.7e-4,0.58382 0.0124,0.74224 0.11938,1.42471 0.0648,0.41364 0.3543497,1.54754 0.4929897,1.93012 0.30629,0.84517 0.80634,1.65241 1.39113,2.24637 0.0954,0.0969 0.18915,0.19571 0.20825,0.21911 0.0192,0.0234 0.19949,0.17572 0.4005,0.339 0.35822,0.291 0.36845,0.30342 0.51934,0.60358 0.16371,0.32565 0.29285,0.53043 0.44907,0.71158 0.0529,0.0614 0.1737,0.20906 0.2682,0.32815 0.0945,0.1191 0.31628,0.36529 0.493,0.54725 0.23186,0.23875 0.31619,0.34542 0.30179,0.38293 -0.0154,0.0403 -8.5e-4,0.0517 0.062,0.0517 0.0503,0 0.14639,0.0529 0.2496,0.13694 0.0924,0.0752 0.2116,0.1627 0.2651,0.1943 0.0534,0.0316 0.0971,0.0825 0.0971,0.11317 0,0.0376 0.0242,0.0558 0.0734,0.0558 0.0401,0 0.19092,0.072 0.33538,0.15968 0.14444,0.0877 0.36088,0.20749 0.48059,0.26665 0.11969,0.0592 0.23221,0.11906 0.25011,0.13281 0.12456,0.0953 1.00417,0.3963 1.29243,0.44235 0.11234,0.018 0.21393,0.0386 0.22583,0.046 0.0119,0.007 0.15388,0.0291 0.31522,0.0486 0.16133,0.0194 0.37746,0.0464 0.48059,0.0594 0.53413,0.0673 1.57683,0.016 2.23759,-0.11007 0.980469,-0.18707 1.998639,-0.57365 2.689239,-1.02113 0.0921,-0.0597 0.22328,-0.14095 0.29198,-0.18086 0.0688,-0.0399 0.18334,-0.11899 0.25424,-0.1757 0.0709,-0.0567 0.20066,-0.13129 0.28836,-0.16588 0.61171,-0.24112 1.58409,-0.83852 1.94923,-1.19735 0.11808,-0.11601 0.2289,-0.21084 0.2465,-0.21084 0.0421,0 0.6169,-0.28933 0.78238,-0.39377 0.14578,-0.092 0.65727,-0.61242 0.99477,-1.01234 0.48913,-0.57953 0.97281,-1.42718 1.13223,-1.98438 0.1196,-0.41808 0.27307,-1.13995 0.32867,-1.54719 0.0411,-0.30143 0.0436,-0.4347 0.0145,-0.82786 -0.031,-0.41947 -0.11161,-0.92777 -0.18811,-1.18804 -0.0302,-0.10298 0.0195,-0.65636 0.10852,-1.20664 0.100982,-0.624543 -0.0148,-1.089434 -0.52037,-2.60604 -0.0573,-0.17188 -0.15095,-0.41585 -0.20825,-0.54261 -0.22536,-0.46494 -0.006,-0.0566 -0.29146,-0.62012 -0.13771,-0.27171 -0.33287,-0.5879 -0.62528,-0.9865 -0.12883,-0.1756 -0.26213,-0.36345 -0.29663,-0.41703 -0.0687,-0.10675 -0.96855,-0.9803 -1.00975,-0.9803 -0.0141,0 -0.0528,-0.0247 -0.0863,-0.0548 -0.2738,-0.24667 -1.14531,-0.81167 -1.59784,-1.03611 -0.52513,-0.26044 -1.62316,-0.60344 -2.05672,-0.64234 -0.31461,-0.0282 -0.68716,-0.12396 -1.18753,-0.30489 -1.751579,-0.63337 -1.914989,-0.6833604 -2.484599,-0.7596504 -0.15616,-0.021 -0.29667,-0.0313 -0.49196,-0.031 z m -0.29455,0.11213 5.1e-4,5.2e-4 h 5.2e-4 5.2e-4 0.002 5.2e-4 5.2e-4 5.1e-4 l 5.2e-4,5.2e-4 -0.001,5.1e-4 c 0.0893,-10e-4 0.18707,0.0119 0.21962,0.0414 0.0499,0.0451 0.0584,0.0453 0.0971,-0.002 0.0362,-0.0436 0.0832,-0.0517 0.30903,-0.0305 0.61219,0.0576 1.16583,0.2365304 1.733809,0.4367204 0.19169,0.0795 0.15203,0.0128 0.3084,0.0932 0.0159,0.008 0.018,0.0142 0.015,0.006 0.032,0.01 0.0582,0.0274 0.0822,0.0501 l 0.006,0.006 c 0.27227,0.0975 0.57576,0.20358 0.68626,0.23875 0.12031,0.0383 0.2297,0.0801 0.2434,0.0925 0.0136,0.0124 -0.22488,0.0314 -0.53072,0.0424 -0.30585,0.011 -0.65326,0.0345 -0.77153,0.0522 -0.420929,0.009 -0.578749,-0.0203 -0.949809,-0.031 -0.0707,-0.002 -0.11803,-0.007 -0.16743,-0.0124 0.0186,-0.0142 0.0177,-0.0125 0.0284,-0.0202 -0.128,-0.007 -0.25603,-0.0241 -0.38137,-0.0512 -0.014,-0.004 -0.0335,-0.01 -0.0491,-0.0108 -0.006,-3.1e-4 -0.011,6.9e-4 -0.017,5.2e-4 -0.0304,-9e-4 -0.0607,-0.004 -0.091,-0.005 -0.0496,-0.003 -0.0987,-0.0143 -0.14831,-0.0176 -0.0241,-0.002 -0.0342,-8.1e-4 -0.0574,0 -0.0513,0.004 -0.1026,0.002 -0.154,0.002 -0.0605,-3e-5 -0.1214,2e-5 -0.1819,0 -0.0599,-6e-5 -0.11942,-10e-6 -0.17932,0 -0.0165,0.001 -0.0332,-0.002 -0.0496,0 -0.006,6e-4 -0.0126,0.002 -0.0186,0.004 -0.0273,0.005 -0.0214,0.003 -0.0481,0.006 -0.006,6e-5 -0.0115,-6e-5 -0.0165,5.1e-4 -0.001,10e-5 0.003,3.8e-4 0.002,5.2e-4 -0.007,0.002 -0.0142,0.003 -0.0212,0.004 -0.007,0.002 -0.0147,0.004 -0.0217,0.006 -0.0268,0.006 -0.0241,0.004 -0.0506,0.006 -0.0238,0.005 -0.048,0.009 -0.0718,0.0145 -0.009,0.002 -0.0184,0.006 -0.0274,0.008 -0.006,0.009 -0.0373,0.01 -0.0393,0.0103 -0.0107,0.002 -0.0207,0.005 -0.0315,0.007 -0.006,8e-5 -0.0116,-1.4e-4 -0.0176,5.2e-4 -10e-4,10e-5 0.002,0.002 0.002,0.002 -0.0114,0.005 -0.0196,0.004 -0.0315,0.006 -0.007,0.002 -0.0136,0.005 -0.0207,0.007 -0.005,8e-4 -0.01,0.002 -0.015,0.003 -0.007,4.6e-4 -0.0152,-10e-4 -0.0222,-5.2e-4 -0.005,4e-4 -0.009,0.004 -0.0134,0.005 -0.0116,0.003 -0.0125,0.002 -0.0238,0.003 7.5e-4,10e-4 -0.005,0.002 -0.008,0.003 -0.003,9e-4 -0.006,0.003 -0.009,0.004 -3e-4,1.9e-4 -8.6e-4,3.5e-4 -0.001,5.2e-4 -0.0103,0.008 -0.0204,0.0129 -0.03,0.015 3.3e-4,0.003 1.5e-4,0.004 5.2e-4,0.007 0.007,0.0576 -0.007,0.0928 -0.0413,0.10593 -0.0727,0.0279 -0.12297,-0.032 -0.0853,-0.10025 0.0224,-0.0399 0.0141,-0.0828 -0.031,-0.15916 -0.0772,-0.13086 -0.16834,-0.13761 -0.19534,-0.015 -0.0153,0.0697 -0.0458,0.0966 -0.13901,0.12454 -0.1741,0.0521 -0.198,0.0479 -0.15141,-0.0284 0.0336,-0.055 0.0306,-0.0712 -0.0212,-0.10956 -0.0747,-0.055 -0.0848,-0.0545 -0.1571,-0.002 -0.072,0.0527 -0.0434,0.14522 0.045,0.14522 0.063,0 0.0825,0.0328 0.0429,0.0724 -0.0114,0.0113 -0.036,0.008 -0.0548,-0.008 l -0.37423,0.062 c -0.0258,0.0197 -0.28872,0.0854 -0.33167,0.0853 -0.043,-1.4e-4 -0.15562,0.035 -0.25012,0.078 -0.39307,0.15431 -0.42155,0.15268 -0.73021,0.28732 -0.18823,0.115 -0.17935,0.11595 -0.40257,0.23875 -0.27626,0.2337 -0.48088,0.34268 -0.71629,0.53224 -0.17327,0.14207 -0.5238,0.49408 -0.74569,0.74879 -0.21792,0.25016 -0.64149,0.94901 -0.73639,1.21491 -0.0399,0.11173 -0.10801,0.29763 -0.15141,0.4129 -0.1738,0.46174 -0.22326,1.5405 -0.0987,2.158 0.0252,0.12443 0.0654,0.34578 0.0904,0.49196 0.0249,0.1462 0.11177,0.44699 0.19327,0.66818 0.11821,0.32099 0.19786,0.47531 0.39429,0.76533 0.24777,0.3658 0.80644,1.09174 0.84284,1.09554 0.0264,0.003 6.4e-4,-0.24418 -0.0532,-0.52452 -0.0814,-0.41886 0.0476,-1.17508 0.33176,-1.94562 0.10684,-0.28976 0.14784,-0.36335 0.41755,-0.74672 0.3791,-0.53887 0.66803,-0.86209 1.1839,-1.32447 0.30604,-0.2743 0.59839,-0.56817 0.71469,-0.7183 0.10821,-0.13971 0.22523,-0.28673 0.25993,-0.32659 0.0348,-0.0399 0.13254,-0.20135 0.21704,-0.35916 0.2647,-0.49414 0.78971,-1.25586 1.01544,-1.49448 0.13937,-0.14733 0.28369,-0.22773 0.38497,-0.35398 0.0379,-0.0265 0.10957,-0.0563 0.24182,-0.14724 0.64897,-0.44613 0.71943,-0.45375 1.00568,-0.54575 0.0713,-0.0556 0.33743,-0.12914 0.72967,-0.20154 0.618689,-0.11418 1.619089,-0.11811 2.718699,-0.0114 0.13845,0.0134 0.27198,0.0717 0.31988,0.14005 0.0342,0.0489 0.067,0.0572 0.17363,0.0434 0.24895,-0.0323 0.99802,0.26251 1.61592,0.63613 0.47148,0.2851 0.82441,0.54288 0.82941,0.60514 0.007,0.0909 0.0704,0.14438 0.0951,0.0801 0.0172,-0.0448 0.0343,-0.0403 0.13385,0.0331 0.33416,0.24637 1.00639,0.89913 1.16943,1.13584 0.064,0.0929 0.18007,0.24653 0.25787,0.34107 0.0778,0.0945 0.15561,0.22441 0.17311,0.28887 0.0175,0.0645 0.0495,0.11766 0.0703,0.11782 0.0806,5.8e-4 0.52948,0.82333 0.73846,1.35392 0.25228,0.64053 0.493113,1.238881 0.659668,2.178105 0.07946,0.448102 0.02105,0.875035 -0.03435,1.029975 -0.0154,0.043 -0.0365,0.18303 -0.0455,0.31109 -0.0182,0.25083 -0.032,0.29419 -0.0656,0.20154 -0.0637,-0.17517 -0.31393,-0.74769 -0.42013,-0.96119 -0.0682,-0.13718 -0.13576,-0.33065 -0.15296,-0.43769 -0.0169,-0.10547 -0.0529,-0.27618 -0.0801,-0.37931 -0.0272,-0.10313 -0.0903,-0.37033 -0.13953,-0.59376 -0.17012,-0.77185 -0.30974,-1.14784 -0.43976,-1.18184 -0.0537,-0.0142 -0.0646,-0.0346 -0.0517,-0.1018 0.0242,-0.1266 -0.0968,-0.36718 -0.38085,-0.7581 -0.17784,-0.24477 -0.25218,-0.37423 -0.25218,-0.43821 0,-0.0998 -0.0622,-0.17016 -0.1292,-0.14676 -0.0266,0.009 -0.14419,-0.11048 -0.3085,-0.3142 -0.32845,-0.40729 -0.77527,-0.82547 -1.26143,-1.17977 -0.20394,-0.14864 -0.3816,-0.27027 -0.3948,-0.27027 -0.013,0 -0.0316,-0.03 -0.0413,-0.0667 -0.0118,-0.0456 -0.0334,-0.0606 -0.0677,-0.0475 -0.0286,0.011 -0.15386,-0.0326 -0.29094,-0.10128 -0.26655,-0.13352 -1.447,-0.53752 -1.74098,-0.59583 -0.28638,-0.0568 -0.29662,-0.0619 -0.29662,-0.14263 0,-0.0408 -0.0151,-0.0824 -0.0331,-0.0935 -0.0176,-0.0111 -0.0304,-0.0443 -0.0274,-0.0729 0.0101,-0.1024 -0.004,-0.13023 -0.0615,-0.13023 -0.0852,0 -0.11334,0.0986 -0.0439,0.15607 0.0331,0.0275 0.052,0.0778 0.046,0.1204 -0.008,0.0596 -0.023,0.0694 -0.0832,0.0543 -0.12515,-0.0314 -1.29123,-0.0228 -1.68568,0.0124 -0.298159,0.026 -0.422839,0.0129 -0.610279,0.10232 -0.34453,0.0877 -0.85752,0.3071 -1.21492,0.51935 -0.36203,0.21498 -0.43553,0.27549 -0.89813,0.74207 -0.3846,0.38792 -0.56431,0.59704 -0.75965,0.88522 -0.1407,0.2076 -0.28544,0.40526 -0.32194,0.43925 -0.0364,0.034 -0.0565,0.0722 -0.0444,0.0842 0.0121,0.0121 0.15153,-0.0109 0.31006,-0.0506 0.51557,-0.12932 1.74404,-0.15868 2.6789,-0.0641 0.696489,0.0705 1.359209,0.18594 1.672249,0.29146 0.39919,0.13455 1.08422,0.42548 1.40612,0.59686 0.40032,0.21315 0.64328,0.29839 0.84904,0.29869 0.10019,1.5e-4 0.33193,0.0345 0.5147,0.076 0.18273,0.0415 0.40051,0.0858 0.48421,0.0982 0.39431,0.0585 1.74103,0.59565 2.05879,0.82114 0.36907,0.26186 0.73459,0.58172 0.95291,0.83302 0.24616,0.28325 0.27699,0.32866 0.22169,0.32866 -0.0187,0 -0.0341,0.0414 -0.0341,0.093 0,0.0625 0.0158,0.094 0.047,0.094 0.0302,0 0.0465,-0.0305 0.0465,-0.0853 v -0.0853 l 0.0496,0.0708 c 0.039,0.0558 0.0419,0.0807 0.0124,0.11628 -0.0201,0.0248 -0.0296,0.066 -0.0196,0.092 0.0217,0.0563 0.10374,0.0633 0.12144,0.01 0.0117,-0.0351 0.24288,0.47991 0.24288,0.54105 0,0.0509 0.0574,0.029 0.0708,-0.0269 0.0129,-0.0538 0.045,0.007 0.27492,0.52503 0.05,0.1125 0.0998,0.25326 0.1111,0.31264 0.0113,0.0594 0.0322,0.12276 0.0465,0.14108 0.0545,0.0701 0.2171,0.78414 0.2651,1.16375 0.0762,0.60308 0.0388,1.1347 -0.13177,1.86552 -0.0812,0.34782 -0.1981,0.79515 -0.2651,1.01544 -0.057,0.18716 -0.33866,0.75284 -0.46664,0.93742 -0.03,0.0432 -0.10878,0.1627 -0.17518,0.26561 -0.0664,0.10294 -0.18851,0.27185 -0.27131,0.37517 -0.23761,0.29655 -0.94783,1.03388 -1.11207,1.15445 -0.1196,0.0878 -0.61803,0.33022 -0.67903,0.33022 -0.0241,0 0.27437,-0.41321 0.39636,-0.54881 0.1544,-0.17162 0.25996,-0.35838 0.40824,-0.7214 0.0685,-0.16783 0.13616,-0.32004 0.14986,-0.33796 0.0138,-0.0179 0.0428,-0.12392 0.0641,-0.23565 0.0213,-0.11172 0.0591,-0.30135 0.0832,-0.42168 0.0658,-0.32865 0.10645,-0.71781 0.10645,-1.01131 0,-0.22966 0.006,-0.25731 0.0465,-0.22324 0.0357,0.0297 0.0462,0.10998 0.046,0.33952 -2.6e-4,0.33765 -0.0319,0.57993 -0.12867,0.98237 -0.0678,0.28147 -0.0592,0.36686 0.0258,0.25631 0.0446,-0.058 0.047,-0.0512 0.031,0.0961 -0.01,0.0872 -0.0551,0.26304 -0.10128,0.39067 -0.10085,0.27821 -0.12653,0.4036 -0.0827,0.4036 0.0839,0 0.28336,-0.59557 0.33486,-0.99994 0.012,-0.0945 0.0397,-0.20715 0.0615,-0.25012 0.1039,-0.20526 0.13553,-0.97766 0.0594,-1.46296 -0.0445,-0.28698 -0.0435,-0.39115 0.002,-0.34519 0.0469,0.0469 0.11382,0.53312 0.11782,0.85524 0.008,0.6786 -0.01,0.89139 -0.0899,1.07435 -0.087,0.19854 -0.0861,0.19121 -0.0274,0.19121 0.063,0 0.18942,-0.25853 0.22892,-0.46871 0.0977,-0.51922 0.19324,-1.38076 0.18294,-1.64796 -0.003,-0.0728 0.009,-0.13253 0.0269,-0.13281 0.045,-7.6e-4 0.0446,0.46441 -5.2e-4,0.88005 -0.0213,0.1946 -0.0339,0.35895 -0.0279,0.36535 0.006,0.006 0.0458,-0.0706 0.0894,-0.17156 0.0436,-0.10098 0.0993,-0.22594 0.12402,-0.2775 l 0.045,-0.0935 0.002,0.0961 c 0.001,0.0531 -0.0267,0.20665 -0.061,0.34106 -0.0742,0.29057 -0.0726,0.26562 -0.0191,0.26562 0.0769,0 0.179,-0.27552 0.2067,-0.55914 0.0142,-0.14779 0.0227,-0.4796 0.0176,-0.73742 -0.008,-0.43678 -0.0194,-0.51214 -0.12867,-0.88316 -0.0219,-0.0744 0.0277,-0.0985 0.0682,-0.0331 0.0126,0.0205 0.0543,0.14344 0.0925,0.27337 0.0771,0.26257 0.0871,0.2544 0.13746,-0.1142 0.047,-0.34419 0.0362,-0.77067 -0.0341,-1.33687 -0.0659,-0.53058 -0.0703,-0.62065 -0.031,-0.59635 0.0152,0.009 0.0441,-0.004 0.0651,-0.0289 0.0311,-0.037 0.0289,-0.0495 -0.007,-0.0636 -0.0252,-0.01 -0.0624,-0.013 -0.0832,-0.008 -0.0559,0.0139 -0.19728,-0.44379 -0.15348,-0.49661 0.0527,-0.0635 -0.0284,-0.23523 -0.10025,-0.21239 -0.0443,0.0141 -0.0987,-0.0538 -0.26665,-0.33486 -0.11597,-0.19405 -0.28597,-0.44603 -0.37776,-0.55966 -0.0918,-0.11363 -0.16691,-0.23609 -0.16691,-0.27181 0,-0.0799 -0.0613,-0.12266 -0.0956,-0.0672 -0.0184,0.0298 -0.11598,-0.0327 -0.36381,-0.23306 -0.49866,-0.40322 -1.37409,-0.93081 -1.8526,-1.11673 -0.21384,-0.0831 -0.43851,-0.1606 -0.49971,-0.17209 l -0.11162,-0.0207 0.11266,0.13798 c 0.10868,0.13329 0.23053,0.30993 0.35243,0.51005 0.0324,0.0531 0.11387,0.23236 0.18087,0.39894 0.15018,0.37327 0.13355,0.3009 0.632,2.72851 0.06,0.29219 0.12963,0.58985 0.15503,0.66095 0.0254,0.0711 0.0976,0.34988 0.1602,0.6196 l 0.1142,0.49041 -0.0331,0.66145 c -0.0181,0.36391 -0.0401,0.83775 -0.0491,1.05265 -0.0195,0.45928 -0.17482,1.26868 -0.3297,1.72083 -0.19381,0.5658 -0.60003,1.28322 -1.02061,1.80247 -0.41068,0.50699 -1.25106,1.24975 -1.63659,1.44643 -0.0652,0.0333 -0.12643,0.0739 -0.13643,0.0899 -0.0197,0.0319 -0.51685,0.3062 -0.81442,0.44958 -0.63224,0.30461 -1.58183,0.55944 -2.453079,0.65836 h -0.001 c -0.77096,0.0876 -1.03572,0.0871 -1.81281,5.2e-4 -0.67644,-0.0753 -1.13372,-0.1722 -1.5937,-0.33797 -0.2809,-0.10123 -1.08335,-0.49828 -1.2082,-0.5979 l -0.0889,-0.0708 0.12454,-0.0217 c 0.0687,-0.0118 0.29574,-0.069 0.50436,-0.12764 0.20862,-0.0586 0.40722,-0.10645 0.44132,-0.10645 0.0652,0 0.33785,0.14028 0.36845,0.18965 0.01,0.0158 0.0142,0.0289 0.007,0.0289 -0.006,0 -0.19328,0.0352 -0.416,0.078 -0.22271,0.0429 -0.43682,0.0779 -0.47542,0.078 -0.10905,2.6e-4 -0.0826,0.0577 0.0315,0.0687 0.0962,0.009 0.84496,-0.10389 0.94723,-0.14314 0.0264,-0.0101 0.10722,0.0121 0.17932,0.0496 0.0721,0.0375 0.22211,0.0981 0.33383,0.13487 0.1117,0.0369 0.20092,0.0798 0.19792,0.0956 -0.003,0.0158 -0.13456,0.0663 -0.29249,0.11214 -0.15793,0.0458 -0.30261,0.0984 -0.32091,0.11679 -0.0615,0.0616 0.003,0.0707 0.14831,0.0212 0.0796,-0.027 0.16515,-0.0491 0.18965,-0.0491 0.0245,0 0.14933,-0.0339 0.27854,-0.0749 l 0.23564,-0.0744 0.3359,0.0868 c 0.18513,0.0478 0.46336,0.10474 0.61805,0.12661 0.4397,0.0621 0.44187,0.066 0.0992,0.20154 -0.16636,0.0658 -0.30231,0.13035 -0.30231,0.14366 0,0.0688 0.10045,0.0496 0.48834,-0.0966 0.45164,-0.1703 0.55199,-0.19218 1.16789,-0.25167 0.27002,-0.0261 0.569309,-0.0851 0.968929,-0.19017 0.52429,-0.1379 0.62661,-0.17653 1.09916,-0.41703 0.35282,-0.17956 0.67923,-0.37713 1.01079,-0.61288 0.41874,-0.29773 0.5257,-0.39179 0.73897,-0.64905 0.57006,-0.68763 0.78668,-0.98945 0.92346,-1.28571 0.0753,-0.16329 0.14998,-0.32481 0.16588,-0.35916 0.21494,-0.46501 0.26744,-0.62443 0.40566,-1.22163 l 0.15245,-0.65784 0.0408,-0.93482 c 0.04,-0.91569 0.0394,-0.94 -0.0253,-1.21647 -0.0363,-0.15516 -0.10451,-0.45055 -0.15141,-0.6568 -0.0469,-0.20625 -0.12933,-0.47236 -0.18293,-0.59067 -0.0945,-0.20879 -0.0979,-0.212 -0.12248,-0.12454 -0.0139,0.0495 -0.0386,0.1972 -0.0558,0.32867 -0.0402,0.30825 -0.17385,0.73881 -0.3576,1.15186 -0.0803,0.18048 -0.21125,0.47582 -0.29145,0.65629 -0.13767,0.30973 -0.45969,0.87549 -0.60204,1.05782 -0.37774,0.48393 -1.28817,1.32292 -1.69757,1.56425 -0.15291,0.0901 -0.37941,0.23212 -0.50332,0.31574 -0.12392,0.0836 -0.30798,0.18611 -0.40928,0.22789 -0.1013,0.0418 -0.44736,0.19772 -0.768949,0.34623 -0.32156,0.14853 -0.67321,0.29087 -0.78134,0.31626 -0.10815,0.0254 -0.29517,0.0745 -0.41548,0.10956 -0.37932,0.11049 -1.79611,0.24971 -2.76573,0.27182 -0.67844,0.0155 -1.35286,-0.0373 -2.06189,-0.16227 -0.12932,-0.0228 -0.24688,-0.0306 -0.26148,-0.0165 -0.0262,0.0251 -0.77583,-0.26462 -0.98909,-0.3824 -0.73376,-0.40527 -1.09086,-0.68484 -1.67224,-1.30897 -0.86161,-0.92494 -1.36248,-2.00271 -1.7182495,-3.69848 -0.2183402,-1.04098 -0.2374902,-2.24657 -0.0496,-3.10989 0.1963105,-0.90272 0.6010805,-2.05764 0.8020205,-2.28823 0.0357,-0.041 0.12352,-0.15355 0.19482,-0.25011 0.16196,-0.21919 0.20845,-0.25255 0.18345,-0.13023 -0.0281,0.13722 -0.15998,0.61489 -0.26923,0.97565 -0.0537,0.1773 -0.15373,0.62723 -0.22273,0.99994 -0.13655,0.73831 -0.15,1.01153 -0.0956,1.99109 l 0.0243,0.43822 0.16433,0.35863 c 0.17021,0.37121 0.54476,1.01356 0.76275,1.30897 0.20426,0.27677 0.5604,0.59532 0.98237,0.87798 0.36454,0.24434 0.43525,0.31055 0.35915,0.3359 -0.0514,0.0171 -0.82416,-0.49116 -1.0232,-0.67283 -0.43731,-0.39911 -0.82853,-0.99763 -1.08624,-1.6614 -0.0295,-0.0761 -0.0618,-0.13085 -0.0708,-0.12195 -0.022,0.022 0.0404,0.45659 0.092,0.64234 0.0933,0.33601 0.33501,0.96356 0.38241,0.9927 0.0279,0.0172 0.0875,0.0737 0.13229,0.12506 0.52695,0.60483 1.21633,1.19423 1.97197,1.68516 0.18993,0.1234 0.62248,0.36226 0.65578,0.36226 0.0176,0 0.0315,0.0207 0.0315,0.0465 0,0.0849 -0.12611,0.0497 -0.44855,-0.12506 -0.48244,-0.26148 -1.03955,-0.65336 -1.41594,-0.99632 -0.33328,-0.30372 -0.43755,-0.41627 -0.74104,-0.7984 -0.0839,-0.10557 -0.15943,-0.18535 -0.16743,-0.17725 -0.0322,0.0322 0.5066,1.19941 0.64957,1.40715 0.24158,0.35097 1.04806,1.08597 1.57665,1.43712 0.38487,0.25572 0.4957,0.3118 0.92191,0.46664 0.28059,0.10193 0.85918,0.26959 1.37511,0.39842 0.76257,0.19044 0.94871,0.22604 1.29656,0.24805 0.66181,0.0419 1.40472,0.009 1.87534,-0.0827 0.5751,-0.11239 1.94834,-0.57286 2.716109,-0.91054 0.85236,-0.37515 0.85297,-0.42652 0.002,-0.24288 -0.60264,0.13004 -0.907439,0.17408 -1.406109,0.20412 -0.25783,0.0155 -0.56749,0.0423 -0.68782,0.0594 -0.24277,0.0346 -1.00148,0.0181 -1.17202,-0.0258 -0.0602,-0.0155 -0.24297,-0.052 -0.40617,-0.0806 -0.16329,-0.0286 -0.33908,-0.0702 -0.39068,-0.093 -0.0516,-0.0228 -0.19923,-0.0882 -0.32814,-0.14521 -0.12891,-0.057 -0.26913,-0.12712 -0.31213,-0.15606 -0.043,-0.0289 -0.18373,-0.11987 -0.31264,-0.20206 -0.51527,-0.32852 -0.88449,-0.6893 -1.36374,-1.33325 -0.3274,-0.43991 -0.49829,-0.79153 -0.77877,-1.60197 -0.0654,-0.18906 -0.16024,-0.44192 -0.21084,-0.56224 -0.0506,-0.12031 -0.13013,-0.31826 -0.17673,-0.43976 -0.0466,-0.12151 -0.16949,-0.35364 -0.27337,-0.51574 -0.10388,-0.1621 -0.29606,-0.46711 -0.42685,-0.67747 -0.1308,-0.21037 -0.38808,-0.58965 -0.57154,-0.84336 -0.2789,-0.38569 -0.76119,-1.13393 -0.76119,-1.18081 0,-0.007 -0.0357,-0.0916 -0.0796,-0.18758 -0.064,-0.14045 -0.0756,-0.20172 -0.0589,-0.31316 0.0192,-0.12784 0.0146,-0.14037 -0.0579,-0.16795 -0.0962,-0.0366 -0.1316,-0.19737 -0.0992,-0.45424 0.0185,-0.14792 0.0146,-0.17363 -0.0284,-0.17363 -0.0599,0 -0.0704,-0.19362 -0.0181,-0.33125 0.0224,-0.0589 0.0224,-0.0949 0,-0.1173 -0.10326,-0.10325 0.0394,-0.61796 0.41755,-1.50327 0.25754,-0.60291 0.76359,-1.38078 1.22369,-1.88154 0.26868,-0.29242 0.79892,-0.7383 1.10743,-0.93121 0.60829,-0.38033 0.84253,-0.49346 1.64073,-0.79323 l 0.25011,-0.094 0.016,0.0837 c 0.0109,0.0573 0.0354,0.0842 0.078,0.0842 0.0514,0 0.0614,-0.0197 0.0584,-0.11989 -0.004,-0.1193 -0.004,-0.12005 0.0992,-0.10077 0.0768,0.0144 0.10984,0.006 0.13074,-0.0315 0.0392,-0.0701 0.80778,-0.2276 1.23455,-0.25322 0.33062,-0.0199 0.3848,-0.007 0.28422,0.0667 -0.0414,0.0303 -0.045,0.0502 -0.0155,0.10542 0.0511,0.0953 0.14048,0.0906 0.11628,-0.006 -0.01,-0.0404 -0.008,-0.0841 0.005,-0.0966 0.0126,-0.0126 0.0238,-0.0394 0.0238,-0.0594 0,-0.0297 0.0793,-0.0458 0.16744,-0.0475 z m -0.60462,0.1224804 c -0.0628,0 -0.0867,0.0591 -0.0444,0.11007 0.0198,0.0248 0.0293,0.0782 0.0191,0.11885 -0.0111,0.0406 -0.0106,0.0834 5.2e-4,0.0946 h 0.001 c 0.0377,0.0377 0.13136,0.0202 0.15916,-0.0295 0.0339,-0.0606 -0.0736,-0.29403 -0.13539,-0.29403 z m 1.19631,0.0439 c -0.009,-0.002 -0.0181,3.7e-4 -0.0264,0.005 -0.0163,0.0101 -0.0215,0.0313 -0.0114,0.0475 0.0101,0.0163 0.0318,0.0214 0.0481,0.0114 0.0163,-0.0101 0.0215,-0.0313 0.0114,-0.0475 -0.005,-0.008 -0.013,-0.014 -0.0217,-0.016 z m 0.66094,0.005 c -0.0433,0.0268 -0.0338,0.10406 0.0253,0.20412 0.0565,0.0956 0.13385,0.12238 0.13385,0.046 0,-0.0695 -0.12737,-0.26976 -0.15917,-0.25011 z m -0.18552,0.0517 c -0.0137,-0.003 -0.0288,-0.002 -0.0434,0.004 -0.0292,0.0108 -0.0407,0.0388 -0.03,0.0667 0.0213,0.0556 0.0923,0.0636 0.12299,0.0139 0.0221,-0.0357 -0.008,-0.0758 -0.0496,-0.0842 z m -0.24701,0.0558 c -0.0511,0 -0.0399,0.0438 0.031,0.11989 0.0663,0.0712 0.12299,0.0658 0.12299,-0.0114 0,-0.044 -0.0915,-0.10852 -0.154,-0.10852 z m -1.7756,0.031 c -0.0462,7.4e-4 -0.0548,0.11336 -0.007,0.14108 0.0637,0.0394 0.0295,0.11138 -0.062,0.1297 -0.1007,0.0201 -0.11681,0.0686 -0.0553,0.16743 0.0213,0.0341 0.054,0.062 0.0744,0.062 0.0464,0 0.16692,-0.14978 0.16692,-0.20773 0,-0.0927 -0.079,-0.2917 -0.11627,-0.29249 z m -0.38292,5.1e-4 c -0.0172,0 -0.031,0.0207 -0.031,0.0465 0,0.0258 0.0138,0.047 0.031,0.047 0.0172,0 0.0315,-0.0212 0.0315,-0.047 0,-0.0258 -0.0143,-0.0465 -0.0315,-0.0465 z m 2.47116,0.0935 c -0.0397,0 -0.0678,0.049 -0.0429,0.0739 0.0352,0.0351 0.0718,0.0215 0.0718,-0.0269 0,-0.0258 -0.0127,-0.047 -0.0289,-0.047 z m -0.90175,0.0207 c -0.0681,0.004 -0.10412,0.0885 -0.0315,0.16072 0.0464,0.0465 0.0878,0.0352 0.13177,-0.0367 0.0262,-0.0427 0.0208,-0.0642 -0.0243,-0.0977 -0.0271,-0.0202 -0.0533,-0.0276 -0.076,-0.0264 z m -1.6583,0.0496 c -0.0192,-0.003 -0.0362,0.009 -0.0362,0.0367 0,0.0272 0.0224,0.0491 0.0496,0.0491 0.0271,0 0.0442,-0.0168 0.0372,-0.0372 -0.01,-0.029 -0.0314,-0.0458 -0.0506,-0.0486 z m 2.99052,0.0863 c -0.005,8.5e-4 -0.0123,0.005 -0.0202,0.0103 0.002,4.4e-4 0.003,8e-4 0.005,10e-4 0.002,5.3e-4 0.007,0.002 0.009,0.003 3.2e-4,-0.005 0.004,-0.01 0.006,-0.0139 z m -2.07016,0.0413 c -0.0202,0.008 -0.027,0.0282 -0.0367,0.0667 -0.0143,0.0568 -0.004,0.10066 0.0346,0.14315 0.0692,0.0765 0.0838,0.0762 0.1323,-10e-4 0.0215,-0.0344 0.0671,-0.0625 0.10128,-0.0625 0.0343,0 0.062,-0.0207 0.062,-0.0455 0,-0.058 -0.0192,-0.0677 -0.17828,-0.094 -0.0618,-0.0102 -0.0951,-0.015 -0.11524,-0.007 z m 1.17512,0.002 c -0.0154,-0.003 -0.0303,-6.3e-4 -0.0413,0.0103 -0.0135,0.014 -0.0182,0.0365 -0.0181,0.0584 0.002,1.2e-4 0.004,10e-4 0.006,0.002 h 5.1e-4 c 0.0204,10e-6 0.043,-10e-6 0.0434,0 0.027,3.1e-4 0.0541,10e-4 0.0811,0.002 0.002,-10e-6 0.003,0 0.005,0 -0.008,-0.0333 -0.0424,-0.0662 -0.076,-0.0729 z m -2.50682,0.0568 c -0.0141,-0.003 -0.0294,-0.002 -0.0455,0.005 -0.04,0.0153 -0.0438,0.0322 -0.0171,0.0822 0.0404,0.0754 0.0889,0.0813 0.11472,0.014 0.0184,-0.0478 -0.01,-0.0921 -0.0522,-0.10077 z m -0.70435,0.14986 c -0.0548,0 -0.0864,0.0539 -0.0646,0.11058 0.0208,0.0544 0.0568,0.0579 0.10439,0.0103 0.043,-0.043 0.0173,-0.12092 -0.0398,-0.12092 z m 0.30386,0.15761 c -0.0327,2.7e-4 -0.0369,0.0324 -0.0186,0.10542 0.0243,0.0963 0.0867,0.0916 0.10129,-0.008 0.006,-0.0407 -0.0102,-0.0757 -0.0403,-0.0873 -0.0173,-0.007 -0.0315,-0.01 -0.0424,-0.01 z m 2.83031,0.002 h 5.2e-4 c 0.0123,-0.007 0.0393,-10e-4 0.0832,0.0155 0.0272,0.0104 0.0496,0.0386 0.0496,0.0625 0,0.0655 -0.0869,0.0522 -0.12506,-0.0191 -0.0174,-0.0325 -0.0244,-0.0519 -0.008,-0.0589 z m -1.57664,0.008 c 0.007,-0.004 0.0184,0.004 0.0372,0.0191 0.0748,0.0621 0.0933,0.23904 0.0346,0.32866 v 5.2e-4 c -0.0645,0.0982 -0.12375,0.0986 -0.16795,0.002 -0.0313,-0.0686 -0.026,-0.0789 0.0574,-0.108 0.0932,-0.0325 0.11768,-0.078 0.061,-0.11318 -0.0172,-0.0106 -0.0315,-0.0488 -0.0315,-0.0842 0,-0.0266 0.002,-0.0411 0.009,-0.045 z m -1.4578,0.0326 c -0.0119,-2.4e-4 -0.0246,0.01 -0.0444,0.0294 -0.0249,0.025 -0.0359,0.0613 -0.0243,0.0801 0.0268,0.0435 0.10124,0.0435 0.12764,0.002 0.0111,-0.0179 0.002,-0.0537 -0.0191,-0.0796 -0.0171,-0.0206 -0.0279,-0.0313 -0.0398,-0.0315 z m 3.29283,0.0806 c 0.0171,0 0.031,0.0143 0.031,0.0315 0,0.0172 -0.0138,0.031 -0.031,0.031 -0.0172,0 -0.0315,-0.0138 -0.0315,-0.031 0,-0.0172 0.0142,-0.0315 0.0315,-0.0315 z m 0.26045,0.004 c -6.9e-4,0.002 0.001,0.006 0,0.007 -0.0116,0.0115 -0.0297,0.0212 -0.0403,0.0212 -0.007,0 0.022,-0.0166 0.0403,-0.0279 z m -1.01079,0.003 c 0.0424,0.009 0.0706,0.053 0.0522,0.10077 -0.0259,0.0673 -0.0744,0.0614 -0.11472,-0.014 -0.0267,-0.05 -0.0234,-0.0668 0.0165,-0.0822 0.016,-0.006 0.0319,-0.007 0.046,-0.005 z m -3.56258,0.009 c -0.0259,0 -0.0524,0.0332 -0.0574,0.0734 -0.008,0.0567 0.003,0.0706 0.047,0.062 0.0687,-0.0132 0.0781,-0.13539 0.0103,-0.13539 z m 2.09135,0.0134 c 0.007,-5.2e-4 0.0134,0.003 0.0212,0.0103 h 0.001 c 0.01,0.0104 0.0147,0.0367 0.005,0.0584 -0.0105,0.0318 -0.0176,0.0319 -0.0372,0 -0.0196,-0.0316 -0.013,-0.0667 0.01,-0.0687 z m -1.62833,0.002 c -0.0647,0 -0.0766,0.0929 -0.0191,0.15038 0.0538,0.0539 0.14847,0.0461 0.17157,-0.014 0.0225,-0.0585 -0.0643,-0.13643 -0.15245,-0.13643 z m 2.46135,0.11576 c 0.0288,-0.005 0.0649,-0.004 0.10749,0.005 0.1188,0.0243 0.14947,0.10489 0.047,0.12454 -0.0339,0.007 -0.0764,0.0319 -0.0946,0.0568 -0.0283,0.0388 -0.0409,0.0367 -0.0868,-0.0139 -0.0789,-0.0872 -0.0595,-0.15755 0.0269,-0.1726 z m 0.99426,0.009 c 0.0472,0 0.0888,0.0755 0.0584,0.10593 -0.0424,0.0424 -0.1018,0.005 -0.1018,-0.0646 0,-0.0229 0.0194,-0.0413 0.0434,-0.0413 z m -2.20762,0.0372 c 0.0301,0.006 0.0548,0.0302 0.0548,0.0543 0,0.0494 -0.0545,0.0772 -0.0879,0.0444 -0.0428,-0.0429 -0.0208,-0.10909 0.0331,-0.0987 z m 4.644159,0.094 c -0.0287,0.009 -0.0537,0.0406 -0.0537,0.0879 0,0.0607 0.0144,0.0761 0.0667,0.0708 0.0448,-0.005 0.0729,0.0146 0.0842,0.0579 0.009,0.0356 0.0318,0.0558 0.0501,0.0444 0.0463,-0.0286 0.045,-0.10277 -0.008,-0.13281 -0.0227,-0.0137 -0.0504,-0.0508 -0.062,-0.0822 -0.0156,-0.0423 -0.0482,-0.0552 -0.077,-0.046 z m -3.714499,0.01 c 0.0451,0 0.0752,0.0355 0.10697,0.12764 0.0415,0.12019 0.0398,0.13171 -0.0238,0.19533 -0.0372,0.0372 -0.0677,0.0815 -0.0677,0.0987 h 5.2e-4 c 0,0.0172 -0.0199,0.0315 -0.0444,0.0315 -0.0351,0 -0.0433,-0.0494 -0.0393,-0.22686 0.005,-0.20392 0.0114,-0.22634 0.0677,-0.22634 z m -0.447,0.0181 c 0.0488,-0.009 0.10335,0.0237 0.10335,0.0755 0,0.0406 -0.0242,0.0658 -0.0703,0.0724 -0.0783,0.0111 -0.13098,-0.072 -0.078,-0.12455 0.0128,-0.0127 0.0287,-0.0204 0.045,-0.0233 z m -1.08624,0.0134 c 0.0111,-0.003 0.0213,-0.002 0.0284,0.005 0.0116,0.0113 0.0207,0.0391 0.0207,0.062 0,0.0465 -0.0809,0.057 -0.10749,0.014 -0.016,-0.0258 0.0251,-0.0712 0.0584,-0.0806 z m 2.52646,0.015 c 0.0626,0 0.1788,0.0922 0.1788,0.14211 0,0.0587 -0.0625,0.057 -0.14935,-0.004 -0.0754,-0.0529 -0.0937,-0.1385 -0.0295,-0.1385 z m 3.557919,0.0315 c -0.0417,0 -0.062,0.0209 -0.062,0.0625 0,0.0417 0.0203,0.062 0.062,0.062 0.0417,0 0.0625,-0.0204 0.0625,-0.062 0,-0.0417 -0.0208,-0.0625 -0.0625,-0.0625 z m -7.627959,0.0351 c -0.009,-10e-4 -0.0166,6.1e-4 -0.0222,0.006 -0.009,0.009 -0.007,0.0318 0.004,0.0501 h -5.2e-4 c 0.0254,0.0412 0.0796,0.0445 0.0796,0.004 0,-0.0277 -0.0344,-0.0571 -0.061,-0.0605 z m 6.18826,5.1e-4 c -0.0163,0.002 -0.035,0.0191 -0.0682,0.0527 -0.0693,0.0702 -0.0662,0.0719 -0.009,0.11679 0.0547,0.0407 0.0679,0.0386 0.12402,-0.0176 0.0595,-0.0594 0.0567,-0.0653 0.009,-0.11627 -0.0255,-0.0255 -0.0395,-0.0381 -0.0558,-0.0357 z m 3.267499,5.2e-4 c -0.0669,-0.0129 -0.11584,0.046 -0.0904,0.11059 0.009,0.0237 0.0463,0.0393 0.0827,0.0341 0.0849,-0.012 0.0953,-0.12871 0.008,-0.1447 z m -7.636229,0.0377 c 0.0263,-0.006 0.0543,0.0302 0.0543,0.0837 0,0.0333 -0.0143,0.0605 -0.032,0.0605 -0.0425,0 -0.0727,-0.0815 -0.0465,-0.12402 0.007,-0.0119 0.0155,-0.0183 0.0243,-0.0202 z m 4.598689,-1.04903 c -0.0546,0.0209 -0.0612,0.12435 -0.005,0.14572 0.0643,0.0259 0.0763,0.023 0.11989,-0.0294 0.0354,-0.0426 0.0335,-0.0564 -0.0145,-0.0915 -0.0311,-0.0228 -0.0761,-0.0341 -0.10025,-0.0248 z m -2.866499,1.06867 c 0.0293,0 0.0421,0.0249 0.0351,0.0698 -0.0107,0.0752 -0.1,0.11181 -0.13487,0.0553 -0.0266,-0.0429 0.0391,-0.12506 0.0997,-0.12506 z m -1.92701,0.0388 c 0.037,10e-4 0.0717,0.0441 0.0475,0.0832 -0.0116,0.0187 -0.0334,0.0341 -0.0486,0.0341 -0.0483,0 -0.0707,-0.0668 -0.0346,-0.10284 0.0108,-0.0108 0.0233,-0.0148 0.0357,-0.0145 z m 1.20819,0.0145 c 0.0139,0.002 0.0276,0.009 0.0393,0.0227 0.0209,0.0252 0.0292,0.0606 0.0181,0.0786 -0.0292,0.0472 -0.10041,0.0401 -0.12041,-0.0119 -0.0199,-0.0516 0.0214,-0.0947 0.063,-0.0894 z m -0.25166,0.0103 h 5.2e-4 5.1e-4 c 0.0659,-0.001 0.0723,0.0882 0.007,0.16846 -0.0713,0.0907 -0.12692,0.10154 -0.18242,0.0346 -0.0311,-0.0374 -0.023,-0.0602 0.0496,-0.12402 0.0487,-0.0428 0.10472,-0.0782 0.12454,-0.0791 z m -0.30489,0.006 c 0.0268,0.006 0.0506,0.0369 0.0506,0.0873 0,0.0471 -0.0201,0.0807 -0.0517,0.0868 -0.0669,0.0129 -0.0905,-0.027 -0.0677,-0.11421 0.0124,-0.0475 0.042,-0.0661 0.0687,-0.0599 z m 3.64112,-1.03404 c -0.0422,-0.0253 -0.0514,0.007 -0.0248,0.076 h 5.1e-4 c 0.0197,0.0514 0.0505,0.0626 0.0827,0.0305 0.0304,-0.0304 -0.018,-0.0822 -0.0584,-0.10646 z m 4.138249,1.06503 c -0.0582,-0.0112 -0.1334,0.10092 -0.1018,0.15193 0.011,0.0177 0.0502,0.028 0.0873,0.0227 0.0841,-0.012 0.0962,-0.15897 0.0145,-0.17467 z m -9.898099,0.0233 c -0.007,-6.8e-4 -0.0143,0.002 -0.0222,0.0103 -0.0105,0.0107 -0.009,0.0446 0.005,0.0755 v 5.2e-4 c 0.0233,0.0533 0.0248,0.0538 0.0377,-0.002 0.011,-0.0462 3.5e-4,-0.0827 -0.0202,-0.0847 z m 0.99373,0.002 c 0.0704,0 0.14189,0.0778 0.11369,0.12351 -0.0225,0.0364 -0.11973,0.0441 -0.15193,0.0119 -0.0449,-0.0449 -0.0192,-0.1354 0.0382,-0.1354 z m -1.58285,0.008 c -0.0202,-0.003 -0.0388,0.0187 -0.0388,0.0677 0,0.0525 0.0172,0.0806 0.0491,0.0806 0.0321,0 0.0463,-0.0226 0.0393,-0.0677 -0.007,-0.05 -0.0294,-0.0777 -0.0496,-0.0806 z m 9.803019,0.0558 c -0.013,10e-4 -0.0247,0.0149 -0.0455,0.0429 -0.033,0.0444 -0.0359,0.0709 -0.0103,0.1018 0.019,0.0229 0.055,0.0413 0.0791,0.0413 0.0694,0 0.0868,-0.0928 0.0284,-0.15038 -0.0248,-0.0244 -0.0387,-0.0367 -0.0517,-0.0357 z m -5.682339,0.0646 c 0.0275,0.004 0.0594,0.0392 0.0594,0.0765 0,0.0247 -0.0143,0.045 -0.032,0.045 -0.0374,0 -0.0774,-0.088 -0.0517,-0.11369 0.007,-0.007 0.0151,-0.009 0.0243,-0.008 z m -1.96422,0.0708 c 0.0532,0.005 0.12033,0.0589 0.11111,0.10749 -0.0156,0.0818 -0.1408,0.0853 -0.1664,0.005 -0.0114,-0.0371 -0.007,-0.0816 0.0103,-0.0987 0.0113,-0.0113 0.0272,-0.0156 0.045,-0.0139 z m 1.12551,0.0253 c 0.0449,0.006 0.0703,0.0314 0.0703,0.0698 0,0.0731 -0.0515,0.0947 -0.10283,0.0434 -0.0626,-0.0627 -0.0453,-0.12415 0.0326,-0.11317 z m 6.182569,0.0357 c -0.0143,-10e-4 -0.0285,0.003 -0.0398,0.0139 -0.0182,0.0187 -0.0253,0.0563 -0.015,0.0832 0.0235,0.0612 0.10215,0.0641 0.12505,0.005 0.0179,-0.0466 -0.0275,-0.0981 -0.0703,-0.1018 z m 0.59532,0.002 c -0.0167,-3.2e-4 -0.0345,0.006 -0.0512,0.0196 -0.0258,0.0214 -0.047,0.058 -0.047,0.0817 0,0.0561 -0.0291,0.0551 -0.0951,-0.005 -0.0483,-0.0439 -0.0583,-0.044 -0.10284,5.1e-4 -0.0647,0.0648 -0.0329,0.1416 0.0589,0.1416 0.0402,0 0.0818,0.0138 0.0925,0.031 v 5.1e-4 c 0.0478,0.0774 0.17379,-0.007 0.21549,-0.14417 0.0205,-0.0674 -0.0207,-0.12462 -0.0708,-0.12558 z m -8.467189,0.0326 c 0.008,-0.003 0.0181,-0.002 0.0274,0.004 0.016,0.01 0.0289,0.0383 0.0289,0.0631 0,0.0515 -0.0493,0.0599 -0.078,0.0134 -0.0191,-0.0309 -0.003,-0.0714 0.0217,-0.0801 z m 0.82166,0.0191 c 0.0253,0.002 0.047,0.0229 0.047,0.0594 0,0.0334 -0.0111,0.0675 -0.0248,0.076 -0.0445,0.0275 -0.10992,-0.0354 -0.0899,-0.0868 0.0136,-0.0353 0.0424,-0.0509 0.0677,-0.0486 z m -1.60921,0.03 c 0.0173,0 0.0315,0.0138 0.0315,0.031 0,0.0172 -0.0143,0.0315 -0.0315,0.0315 -0.0172,0 -0.031,-0.0143 -0.031,-0.0315 0,-0.0172 0.0138,-0.031 0.031,-0.031 z m 1.76062,5.2e-4 c 0.0367,0.003 0.0832,0.0391 0.0832,0.0765 0,0.0624 -0.0903,0.0619 -0.11421,-5.2e-4 -0.0103,-0.0265 -0.0105,-0.0562 -5.1e-4,-0.0661 0.008,-0.008 0.0193,-0.0103 0.0315,-0.009 z m 8.379329,0.062 c -0.045,0 -0.17053,0.10614 -0.17053,0.14417 0,0.0532 0.0987,0.0574 0.14986,0.006 0.0372,-0.0372 0.0528,-0.15038 0.0207,-0.15038 z m -10.853079,0.006 c -0.0288,-0.007 -0.0441,0.0258 -0.0243,0.0775 0.0157,0.0408 0.029,0.0449 0.0568,0.017 0.028,-0.0278 0.0282,-0.0452 0,-0.0734 -0.0119,-0.0119 -0.023,-0.0189 -0.0326,-0.0212 z m 1.64899,0.0269 c 0.0161,0 0.038,0.0143 0.0486,0.0315 0.0107,0.0172 -0.003,0.031 -0.0295,0.031 -0.0268,0 -0.0486,-0.0138 -0.0486,-0.031 0,-0.0172 0.0132,-0.0315 0.0294,-0.0315 z m 0.14211,0 c 0.0258,0 0.047,0.0213 0.047,0.047 0,0.0258 -0.0212,0.0465 -0.047,0.0465 -0.0258,0 -0.0465,-0.0207 -0.0465,-0.0465 0,-0.0258 0.0207,-0.047 0.0465,-0.047 z m -2.27014,0.0119 v 5.1e-4 c -0.0518,1.8e-4 -0.0945,0.0533 -0.0543,0.10181 0.0195,0.0235 0.0459,0.0419 0.0589,0.0419 0.013,0 0.0394,-0.0184 0.0589,-0.0419 0.027,-0.0325 0.0241,-0.0529 -0.0119,-0.0827 -0.0165,-0.0137 -0.0344,-0.0197 -0.0517,-0.0196 z m 3.8194,0.0506 c 0.0636,0 0.154,0.065 0.154,0.11058 0,0.0529 -0.0542,0.0577 -0.13281,0.0119 -0.0596,-0.0347 -0.0748,-0.12247 -0.0212,-0.12247 z m 7.067269,0.006 c -0.0404,-0.007 -0.0869,1.7e-4 -0.11782,0.0258 -0.0553,0.0459 -0.0614,0.14404 -0.006,0.16329 0.0663,0.023 0.21572,-0.0698 0.20464,-0.12764 -0.006,-0.0323 -0.0402,-0.0542 -0.0806,-0.0615 z m -9.591659,0.006 c 0.006,-0.002 0.0136,-0.002 0.0222,0.004 0.0172,0.0107 0.031,0.025 0.031,0.0326 0,0.008 -0.0138,0.014 -0.031,0.014 -0.0172,0 -0.031,-0.0144 -0.031,-0.0326 0,-0.009 0.003,-0.0151 0.009,-0.0176 z m 0.23978,0.0506 c 0.0392,0 0.0985,0.11083 0.0729,0.13642 -0.0477,0.0477 -0.10283,0.005 -0.10283,-0.0791 0,-0.0315 0.0134,-0.0574 0.03,-0.0574 z m 6.110739,0 c 0.0282,0 0.0421,0.0143 0.0315,0.0315 -0.0106,0.0172 -0.0245,0.031 -0.0315,0.031 -0.006,0 -0.0204,-0.0138 -0.031,-0.031 -0.0107,-0.0172 0.003,-0.0315 0.031,-0.0315 z m -4.343919,0.031 c 0.0258,0 0.047,0.0276 0.047,0.061 0,0.0652 -0.0413,0.10645 -0.0739,0.0739 -0.0388,-0.0386 -0.0194,-0.13488 0.0269,-0.13488 z m 6.408389,5.1e-4 c 0.0552,0 0.0763,0.0176 0.0765,0.0625 -2e-4,0.0449 -0.0213,0.062 -0.0765,0.062 -0.0419,0 -0.0849,-0.0138 -0.0956,-0.031 -0.0311,-0.0503 0.0133,-0.0935 0.0956,-0.0935 z m -1.89808,0.0326 v 5.2e-4 5.1e-4 c 0.0326,9.2e-4 0.0435,0.0283 0.0258,0.0744 -0.0237,0.0618 -0.0709,0.0617 -0.0946,0 -0.0106,-0.0277 0.002,-0.0561 0.0295,-0.0667 0.0154,-0.006 0.0284,-0.009 0.0393,-0.009 z m -7.479129,0.03 c -0.0488,0 -0.0617,0.0369 -0.0258,0.0729 0.0359,0.0359 0.0729,0.023 0.0729,-0.0258 0,-0.0258 -0.0212,-0.047 -0.047,-0.047 z m 11.629269,0.006 c -0.0732,-0.0142 -0.12138,0.0567 -0.0749,0.11214 0.019,0.0228 0.0564,0.0373 0.0837,0.032 0.0702,-0.0135 0.0661,-0.13034 -0.009,-0.14418 z m -3.50418,0.0377 c 0.022,-0.004 0.0497,0.0158 0.093,0.0625 0.0434,0.0469 0.0791,0.10534 0.0791,0.13023 0,0.0249 -0.0138,0.0455 -0.031,0.0455 -0.0171,0 -0.0315,-0.0212 -0.0315,-0.047 0,-0.0263 -0.028,-0.0475 -0.0636,-0.0475 -0.0745,0 -0.11644,-0.0826 -0.0661,-0.13229 0.006,-0.006 0.0125,-0.0101 0.0202,-0.0114 z m -6.577889,0.0816 c 0.0172,0 0.031,0.0143 0.031,0.0315 0,0.0172 -0.0138,0.031 -0.031,0.031 -0.0173,0 -0.0315,-0.0138 -0.0315,-0.031 0,-0.0172 0.0143,-0.0315 0.0315,-0.0315 z m 7.388689,0.0165 c 0.0111,-0.003 0.0213,-0.001 0.0284,0.006 0.0115,0.0113 0.0207,0.0396 0.0207,0.0625 0,0.0465 -0.0809,0.057 -0.10749,0.0139 -0.016,-0.0258 0.0251,-0.0717 0.0584,-0.0811 z m -1.35547,0.015 c 0.0742,0 0.0825,0.10903 0.0109,0.13694 -0.0684,0.0262 -0.075,0.0246 -0.0946,-0.0264 -0.0243,-0.0631 0.0118,-0.11058 0.0837,-0.11058 z m -5.745899,0.003 c 0.0284,0.006 0.0563,0.0534 0.0563,0.10956 0,0.0419 -0.0141,0.076 -0.031,0.076 -0.0347,0 -0.0798,-0.14963 -0.0532,-0.17622 0.009,-0.008 0.0184,-0.0112 0.0279,-0.009 z m 5.013129,0.004 c 0.0315,0.006 0.0589,0.027 0.0589,0.0568 h -5.2e-4 c 0,0.0504 -0.12389,0.0823 -0.15089,0.0388 -0.009,-0.0147 -0.005,-0.0448 0.009,-0.0672 0.0165,-0.0266 0.0522,-0.0347 0.0837,-0.0284 z m -6.040459,0.0258 c 0.0369,0.002 0.0837,0.0382 0.0837,0.076 h -5.2e-4 c 0,0.0263 -0.0123,0.0481 -0.0274,0.0481 -0.0394,0 -0.110078,-0.0914 -0.0873,-0.11369 0.008,-0.008 0.0192,-0.0111 0.0315,-0.0103 z m 8.836149,0.006 c 0.0142,6.2e-4 0.0272,0.0106 0.0476,0.0305 0.0391,0.0397 0.0412,0.0523 0.003,0.0827 -0.0327,0.0272 -0.0566,0.0264 -0.0982,-0.004 -0.0501,-0.0371 -0.0519,-0.0429 -0.003,-0.0822 0.0217,-0.0181 0.0365,-0.027 0.0506,-0.0264 z m -9.096599,0.009 c 0.0173,0.0106 0.0315,0.0329 0.0315,0.0491 0,0.0162 -0.0143,0.0295 -0.0315,0.0295 -0.0172,0 -0.031,-0.0223 -0.031,-0.0491 0,-0.0271 0.0138,-0.04 0.031,-0.0295 z m 1.55133,0.0176 c 0.0233,0.006 0.0429,0.0259 0.0429,0.0574 0,0.0728 -0.0899,0.11324 -0.11369,0.0512 -0.01,-0.0247 -0.008,-0.0595 0.003,-0.0775 0.017,-0.0274 0.0444,-0.0365 0.0677,-0.031 z m -3.04581,0.006 c -0.0482,-0.0161 -0.0473,0.0948 0.001,0.14315 0.0552,0.0551 0.11238,-0.01 0.0687,-0.0785 -0.018,-0.0286 -0.0496,-0.0579 -0.0698,-0.0646 z m 1.10226,0.0284 c 0.0357,-0.007 0.0504,0.005 0.0419,0.0315 -0.008,0.0231 -0.0392,0.0468 -0.0698,0.0527 -0.0357,0.007 -0.0509,-0.004 -0.0419,-0.031 0.008,-0.0231 0.0392,-0.0473 0.0698,-0.0532 z m 6.17946,0 c 0.009,0.002 0.0189,0.007 0.0289,0.0176 h 10e-4 c 0.0216,0.0224 0.0218,0.0401 5.1e-4,0.0532 -0.0175,0.0108 -0.0412,0.004 -0.0527,-0.0145 -0.0224,-0.036 -0.005,-0.0623 0.0222,-0.0563 z m 2.185399,0.0579 c 0.0522,0 0.0636,0.015 0.0527,0.0718 -0.007,0.0396 0.004,0.0889 0.0264,0.10956 0.0222,0.0207 0.0327,0.0586 0.0227,0.0842 h -5.1e-4 c -0.0347,0.0904 -0.10491,0.0451 -0.10491,-0.0677 0,-0.0401 -0.0138,-0.0728 -0.031,-0.0728 -0.0171,0 -0.0315,-0.0282 -0.0315,-0.0625 0,-0.0428 0.0208,-0.0625 0.0661,-0.0625 z m 1.67742,0.0424 c 0.0392,-0.008 0.0692,0.0244 0.0692,0.0842 0,0.0438 -0.0216,0.061 -0.078,0.061 -0.0871,0 -0.1033,-0.0647 -0.0326,-0.12402 0.0142,-0.0118 0.0283,-0.0187 0.0413,-0.0212 z m -9.778219,0.0496 c 0.007,-6.7e-4 0.0143,0.002 0.0222,0.0103 h 5.2e-4 c 0.01,0.0104 0.0152,0.0367 0.005,0.0584 -0.0105,0.0318 -0.018,0.0313 -0.0377,-5.1e-4 -0.0196,-0.0316 -0.013,-0.0662 0.01,-0.0682 z m 9.165849,0.0331 c 0.0307,0.007 0.0568,0.0294 0.0568,0.0625 0,0.041 -0.0211,0.0625 -0.061,0.0625 -0.0687,0 -0.109,-0.0474 -0.0801,-0.094 0.018,-0.0291 0.0536,-0.0378 0.0842,-0.031 z m 2.23087,0.0103 c -0.0665,-0.002 -0.14314,0.0495 -0.14314,0.11421 v 5.1e-4 c 0,0.0824 0.12605,0.0863 0.19895,0.006 0.0474,-0.0523 0.0494,-0.0613 0.004,-0.0977 -0.0167,-0.0139 -0.0378,-0.0211 -0.06,-0.0217 z m -10.799339,0.0522 c 0.0172,0 0.031,0.0138 0.031,0.031 0,0.0172 -0.0138,0.0315 -0.031,0.0315 -0.0172,0 -0.0315,-0.0143 -0.0315,-0.0315 0,-0.0172 0.0143,-0.031 0.0315,-0.031 z m 5.38727,0 c 0.0364,0 0.0816,0.0617 0.0816,0.11162 0,0.0369 -0.0901,0.006 -0.10645,-0.0362 -0.0267,-0.0693 -0.0243,-0.0755 0.0248,-0.0755 z m 4.578529,0.092 c 0.006,-6.6e-4 0.0139,0.003 0.0217,0.0103 0.011,0.0104 0.0162,0.0362 0.006,0.0579 -0.0106,0.0318 -0.018,0.0319 -0.0377,0 -0.0196,-0.0316 -0.013,-0.0662 0.01,-0.0682 z m -1.72961,10e-4 c 0.0248,0 0.045,0.0212 0.045,0.047 0,0.0471 -0.0659,0.0642 -0.10335,0.0269 -0.0292,-0.0292 0.006,-0.0739 0.0584,-0.0739 z m 0.57154,0.0119 v 5.2e-4 c 0.0544,0.0336 0.0435,0.12752 -0.0212,0.18603 -0.0649,0.0588 -0.11743,0.0664 -0.14573,0.0207 -0.0106,-0.0171 -0.0456,-0.0315 -0.078,-0.0315 -0.0752,0 -0.11218,-0.0573 -0.0656,-0.10335 0.0266,-0.0266 0.0519,-0.0256 0.0992,0.004 0.0548,0.0342 0.0713,0.0299 0.11937,-0.0295 0.0314,-0.0389 0.0716,-0.0592 0.092,-0.0465 z m -1.76681,0.061 c 0.0252,-0.003 0.0527,0.034 0.0527,0.0853 0,0.0334 -0.0125,0.061 -0.0279,0.061 -0.0367,0 -0.071,-0.0917 -0.0481,-0.12867 0.007,-0.011 0.0148,-0.0165 0.0233,-0.0176 z m -8.975169,0.0227 v 5.2e-4 c -0.0323,10e-4 -0.0384,0.0329 -0.005,0.0894 0.0191,0.0358 0.0485,0.0651 0.0651,0.0651 0.0496,0 0.034,-0.12624 -0.0181,-0.14625 -0.0172,-0.007 -0.0311,-0.009 -0.0419,-0.009 z m 8.164359,0.0284 v 5.2e-4 h 5.2e-4 c 0.0354,0.004 0.0816,0.0416 0.0816,0.077 l 5.2e-4,5.1e-4 c 0,0.0639 -0.0821,0.0616 -0.10697,-0.003 -0.011,-0.0282 -0.0157,-0.0584 -0.005,-0.0667 0.007,-0.007 0.0183,-0.01 0.0294,-0.008 z m -6.568589,0.003 c 0.0109,-3.1e-4 0.024,0.003 0.0393,0.009 0.0273,0.0105 0.0401,0.0386 0.0294,0.0661 -0.0237,0.0618 -0.0714,0.0618 -0.0951,0 -0.0177,-0.046 -0.006,-0.0735 0.0264,-0.0744 z m 11.608599,0.0109 c -0.0119,-2.4e-4 -0.0246,0.01 -0.0445,0.0294 -0.0249,0.025 -0.0359,0.0608 -0.0243,0.0796 0.0268,0.0435 0.10124,0.045 0.12764,0.003 0.0111,-0.0179 0.003,-0.0542 -0.0186,-0.0801 -0.0171,-0.0206 -0.0284,-0.0308 -0.0403,-0.031 z m -1.68827,0.0269 c 0.0155,-0.004 0.0293,-0.002 0.0372,0.006 0.0109,0.0108 0.005,0.0436 -0.0139,0.0729 -0.0442,0.0701 -0.13642,0.0872 -0.13642,0.0253 0,-0.0394 0.0665,-0.093 0.11317,-0.10387 z m -0.40566,0.0537 c 0.0957,0 0.12686,0.0624 0.0574,0.11369 -0.0735,0.0539 -0.20206,0.0547 -0.20206,0.002 0,-0.0621 0.0668,-0.11524 0.1447,-0.11524 z m -1.08417,0.031 c 0.078,0 0.11566,0.0612 0.0605,0.0966 -0.0523,0.0331 -0.0731,0.0349 -0.10026,0.008 -0.0424,-0.0425 -0.0189,-0.10438 0.0398,-0.10438 z m -8.897139,0.008 c 0.0216,0.007 0.0393,0.0319 0.0393,0.0548 0,0.0229 -0.0178,0.0482 -0.0393,0.0553 -0.0232,0.008 -0.0393,-0.015 -0.0393,-0.0553 0,-0.0403 0.016,-0.0626 0.0393,-0.0548 z m 8.168499,0.0269 c 0.0138,-2e-4 0.0281,0.003 0.0413,0.0114 0.0179,0.0111 0.0331,0.0404 0.0331,0.0651 0,0.0606 -0.11364,0.0577 -0.13694,-0.003 -0.0151,-0.0393 0.0211,-0.0728 0.0625,-0.0734 z m -6.391859,0.031 v 5.2e-4 c 0.0275,0.004 0.0594,0.0391 0.0594,0.0765 0,0.0248 -0.0143,0.045 -0.032,0.045 -0.0374,0 -0.0779,-0.088 -0.0522,-0.11369 0.007,-0.007 0.0156,-0.01 0.0248,-0.008 z m 9.200469,0.0703 c 0.0502,-0.0159 0.11992,0.0416 0.0961,0.0796 -0.0351,0.0569 -0.14916,0.0423 -0.13746,-0.0176 0.006,-0.0287 0.024,-0.0566 0.0413,-0.062 z m -11.543999,0.0233 v 5.2e-4 c 0.0275,0.004 0.0589,0.0391 0.0589,0.0765 0,0.0247 -0.0143,0.045 -0.032,0.045 -0.0375,0 -0.0774,-0.088 -0.0517,-0.11369 0.007,-0.007 0.0156,-0.009 0.0248,-0.008 z m -0.74569,0.004 c -0.0775,-0.011 -0.0952,0.0505 -0.0326,0.11317 0.0513,0.0513 0.10283,0.0297 0.10283,-0.0434 0,-0.0383 -0.0253,-0.0634 -0.0703,-0.0698 z m 14.125759,0.004 c -0.0152,-0.004 -0.0302,-3.3e-4 -0.0419,0.0114 -0.0188,0.019 -0.0258,0.0641 -0.0139,0.10025 0.0245,0.0771 0.10405,0.0867 0.13125,0.016 0.0194,-0.0506 -0.0298,-0.11723 -0.0754,-0.12764 z m -3.7853,0.0873 v 5.2e-4 c 0.0477,-0.009 0.10542,0.0162 0.10542,0.0579 h 5.1e-4 c 0,0.0562 -0.12609,0.0802 -0.15709,0.03 -0.0125,-0.0197 -0.008,-0.0504 0.009,-0.0677 0.0111,-0.0111 0.0264,-0.0177 0.0424,-0.0207 z m 2.52232,0.0682 c 0.009,0.003 0.0162,0.0144 0.0238,0.0341 0.0114,0.0298 0.005,0.0695 -0.0134,0.0884 -0.0251,0.025 -0.0402,0.0198 -0.0553,-0.0196 -0.0114,-0.0298 -0.005,-0.07 0.0134,-0.0889 0.0125,-0.0125 0.0227,-0.0171 0.0315,-0.0139 z m -1.47949,0.0842 v 5.2e-4 c 0.0248,0.002 0.0525,0.0135 0.0646,0.0331 0.0322,0.0518 -0.0302,0.0974 -0.0739,0.0537 -0.0207,-0.0206 -0.0372,-0.0493 -0.0372,-0.0631 0,-0.0187 0.0217,-0.0263 0.0465,-0.0243 z m 2.95847,0.031 c -0.0664,0 -0.0989,0.0523 -0.0744,0.11886 0.0236,0.064 0.11499,0.0283 0.12609,-0.0491 0.007,-0.0523 -0.005,-0.0698 -0.0517,-0.0698 z m -13.807939,5.2e-4 c 0.0367,0.003 0.0837,0.0391 0.0837,0.0765 0,0.0624 -0.0908,0.0619 -0.11473,-5.2e-4 -0.0103,-0.0265 -0.01,-0.0562 0,-0.0662 0.008,-0.008 0.0188,-0.011 0.031,-0.01 z m 11.365199,0.078 v 5.2e-4 c 0.0243,-0.003 0.047,0.012 0.047,0.0455 0,0.0256 -0.0263,0.0513 -0.0579,0.0574 -0.0414,0.008 -0.054,-0.005 -0.046,-0.0465 0.007,-0.0342 0.0325,-0.0543 0.0569,-0.0568 z m 0.56482,0.015 c 0.0843,0 0.10946,0.066 0.0434,0.1142 -0.069,0.0504 -0.12856,0.0539 -0.15606,0.009 -0.0279,-0.0451 0.0437,-0.1235 0.11265,-0.1235 z m -3.44578,0.008 c 0.0114,-0.002 0.0236,-5.9e-4 0.0346,0.006 0.0188,0.0115 0.0336,0.0414 0.0336,0.0661 0,0.0526 -0.0805,0.0604 -0.1111,0.0109 -0.0204,-0.0331 0.009,-0.0752 0.0429,-0.0827 z m 2.6789,0.0233 c 0.0252,0 0.046,0.0128 0.046,0.0289 0,0.0524 -0.0554,0.0656 -0.0739,0.0176 -0.0108,-0.0284 0,-0.0465 0.0279,-0.0465 z m 1.59267,0 c 0.0261,0 0.047,0.0278 0.047,0.0625 0,0.0623 -0.0333,0.081 -0.0729,0.0413 -0.0381,-0.0381 -0.0218,-0.10387 0.0258,-0.10387 z m 0.64286,0.0382 c -0.0443,-0.0134 -0.0736,0.0426 -0.0341,0.11627 0.0356,0.0666 0.0963,0.0739 0.11627,0.0139 0.006,-0.0168 -0.01,-0.0578 -0.0346,-0.0915 -0.0161,-0.0218 -0.0328,-0.0343 -0.0475,-0.0388 z m -7.096209,0.0243 c 0.0172,0 0.0315,0.0207 0.0315,0.0465 0,0.0258 -0.0143,0.047 -0.0315,0.047 -0.0172,0 -0.031,-0.0213 -0.031,-0.047 0,-0.0258 0.0138,-0.0465 0.031,-0.0465 z m 4.250379,0 c 0.0172,0 0.031,0.0138 0.031,0.031 0,0.0172 -0.0138,0.0315 -0.031,0.0315 -0.0173,0 -0.0315,-0.0143 -0.0315,-0.0315 0,-0.0172 0.0143,-0.031 0.0315,-0.031 z m 3.35949,0.15606 c -0.0472,0 -0.0673,0.12602 -0.0264,0.16692 0.0448,0.0448 0.0734,0.0167 0.0734,-0.0729 0,-0.0625 -0.0158,-0.0941 -0.047,-0.0941 z m -1.52962,0.031 c 0.0248,0 0.045,0.0212 0.045,0.047 0,0.0472 -0.066,0.0642 -0.10336,0.0269 -0.0292,-0.0292 0.006,-0.0739 0.0584,-0.0739 z m -13.425019,0.0424 c -0.0149,9.4e-4 -0.0288,0.007 -0.0398,0.0176 -0.0164,0.0166 -0.0211,0.0529 -0.0103,0.0811 h -5.2e-4 c 0.0243,0.0634 0.1252,0.0486 0.1385,-0.0202 0.009,-0.0445 -0.0431,-0.0814 -0.0879,-0.0785 z m 0.61133,0.18914 c 0.0342,10e-4 0.077,0.0334 0.077,0.0687 0,0.0239 -0.0281,0.0439 -0.0625,0.0439 -0.0588,0 -0.085,-0.0612 -0.0439,-0.10232 0.008,-0.008 0.0181,-0.0107 0.0295,-0.0103 z m 11.077359,0.0186 c 0.0173,0 0.0315,0.0143 0.0315,0.0315 0,0.0172 -0.0144,0.031 -0.0315,0.031 -0.0171,0 -0.031,-0.0138 -0.031,-0.031 0,-0.0172 0.0137,-0.0315 0.031,-0.0315 z m 2.41897,0 c 0.0472,0 0.0888,0.0761 0.0584,0.10645 -0.0412,0.0412 -0.10232,0.0149 -0.10232,-0.0439 0,-0.0344 0.02,-0.0625 0.0439,-0.0625 z m 1.09451,5.1e-4 c -0.0809,0 -0.0994,0.0571 -0.0382,0.11834 v 5.2e-4 c 0.0486,0.0485 0.10841,0.0478 0.12661,-0.002 0.0254,-0.0691 -0.0109,-0.11679 -0.0884,-0.11679 z m -2.10271,0.093 v 5.2e-4 c 0.0489,0 0.0283,0.11411 -0.03,0.16692 -0.0702,0.0635 -0.16174,0.0675 -0.16174,0.007 0,-0.0452 0.14202,-0.17415 0.19172,-0.17415 z m 1.19527,0.13953 c 0.0109,-0.003 0.0217,-0.002 0.03,0.007 0.0115,0.0113 0.0207,0.0465 0.0207,0.078 0,0.0675 -0.0796,0.0774 -0.10438,0.0129 -0.014,-0.0366 0.0212,-0.0883 0.0537,-0.0977 z m -0.38189,0.14366 v 5.2e-4 c 0.0276,0.005 0.0574,0.0475 0.0574,0.0935 0,0.0333 -0.0129,0.0605 -0.0289,0.0605 -0.0337,0 -0.0788,-0.121734 -0.0543,-0.146254 0.008,-0.008 0.0166,-0.01 0.0258,-0.008 z m 1.4795,0.03 c -0.0488,0 -0.0624,0.0369 -0.0264,0.0729 0.036,0.036 0.0729,0.0224 0.0729,-0.0264 0,-0.0258 -0.0207,-0.0465 -0.0465,-0.0465 z m -1.84433,10e-4 c 0.0253,0.002 0.047,0.0229 0.047,0.0594 0,0.0334 -0.0111,0.0675 -0.0248,0.076 -0.0446,0.0275 -0.11002,-0.0354 -0.0899,-0.0868 0.0136,-0.0353 0.0424,-0.0509 0.0677,-0.0486 z m 0.83664,0.13229 v 5.2e-4 c 0.0204,0.008 0.0422,0.0356 0.0486,0.0785 0.006,0.0373 -0.003,0.0682 -0.0181,0.0682 -0.0447,0 -0.0698,-0.0369 -0.0698,-0.1018 0,-0.0405 0.0188,-0.0533 0.0393,-0.0455 z m 1.34514,0.002 c -0.0229,0.002 -0.0343,0.0326 -0.0196,0.0708 0.009,0.0241 0.0296,0.0434 0.045,0.0434 0.0355,0 0.036,-0.0845 5.1e-4,-0.10645 -0.01,-0.006 -0.0182,-0.008 -0.0258,-0.008 z m -16.041399,0.0879 c -0.011,7e-5 -0.0223,0.005 -0.0331,0.016 -0.015,0.0151 -0.0164,0.0588 -0.009,0.0971 0.0248,0.0947 0.10439,0.0893 0.10439,-0.007 0,-0.063 -0.0291,-0.10666 -0.062,-0.10645 z m 16.099789,0.062 c -0.027,-0.006 -0.0445,0.0208 -0.0222,0.0568 h 5.2e-4 c 0.0115,0.0186 0.0352,0.0248 0.0527,0.014 0.021,-0.0132 0.0189,-0.0303 -0.002,-0.0527 -0.01,-0.01 -0.0199,-0.0161 -0.0289,-0.0181 z m -15.447119,0.0269 h 5.2e-4 c 0.0153,3.5e-4 0.0366,0.0237 0.0475,0.0522 h -5.2e-4 c 0.0216,0.0562 -0.0192,0.1189 -0.0543,0.0837 -0.0306,-0.031 -0.03,-0.13511 0.007,-0.13591 z m 14.282849,0.0734 c 0.0496,0.0108 0.0983,0.0543 0.0786,0.0863 -0.0262,0.0424 -0.095,0.0332 -0.13798,-0.0186 -0.0313,-0.0377 -0.0292,-0.0503 0.0119,-0.0661 0.0143,-0.005 0.031,-0.005 0.0475,-0.002 z m 0.6966,0.0331 c -0.0156,-0.003 -0.0307,-3e-4 -0.0419,0.0109 -0.0283,0.0277 -0.0258,0.048 0.003,0.0847 h 5.2e-4 c 0.0471,0.0568 0.0828,0.0613 0.11214,0.0139 0.0251,-0.0407 -0.0272,-0.10083 -0.0739,-0.10955 z m -0.29094,0.11266 c 0.0153,0 0.0349,0.0188 0.0439,0.0419 h -5.2e-4 c 0.0193,0.0503 -0.0205,0.1242 -0.0506,0.094 -0.0308,-0.0311 -0.0225,-0.13591 0.007,-0.13591 z m -0.24598,0.21859 c 0.0167,0 0.0305,0.0212 0.0305,0.047 0,0.0258 -0.005,0.0465 -0.0124,0.0465 -0.007,0 -0.0205,-0.0207 -0.0305,-0.0465 -0.01,-0.0258 -0.004,-0.047 0.0124,-0.047 z m -0.43305,0.002 c 0.0276,0.005 0.0574,0.0476 0.0574,0.0935 0,0.0334 -0.0135,0.0605 -0.0294,0.0605 -0.0336,0 -0.0778,-0.1212 -0.0538,-0.14573 0.008,-0.008 0.0166,-0.01 0.0258,-0.008 z m 0.75344,0.13901 h 5.2e-4 c 0.006,-0.005 0.0135,-0.005 0.0222,0 0.0168,0.0108 0.024,0.0326 0.014,0.0486 -0.0267,0.0433 -0.0455,0.0353 -0.0455,-0.0196 0,-0.0135 0.004,-0.0237 0.009,-0.0289 z m -0.40669,0.23564 c 0.0356,0.002 0.0853,0.0319 0.0853,0.0599 0,0.0177 -0.0202,0.032 -0.045,0.032 -0.0498,0 -0.0961,-0.0569 -0.0687,-0.0842 0.006,-0.006 0.0165,-0.008 0.0284,-0.008 z m 0.39739,1.57665 c -0.0296,0 -0.0503,0.0366 -0.0563,0.10129 -0.0104,0.10799 0.0249,0.13088 0.0868,0.0563 0.0487,-0.0586 0.0295,-0.15762 -0.0305,-0.15762 z m -0.0129,1.07797 c 0.0321,0 0.0463,0.0226 0.0393,0.0677 -0.0147,0.10004 -0.0884,0.11081 -0.0884,0.0129 0,-0.0525 0.0171,-0.0806 0.0491,-0.0806 z m 0.7953,0.12506 c -0.0331,0.002 -0.063,0.0213 -0.063,0.0574 0,0.0315 0.009,0.0666 0.0207,0.078 0.05,0.0501 0.15117,-0.0185 0.12557,-0.0853 -0.0136,-0.0355 -0.05,-0.0518 -0.0832,-0.0501 z m 0.15245,0.17415 c -0.0154,0.01 -0.0279,0.0373 -0.0279,0.062 0,0.046 0.0373,0.0599 0.0708,0.0264 0.0282,-0.0282 -0.0107,-0.1082 -0.0429,-0.0884 z m -0.83251,0.33383 c 0.0215,0.007 0.0388,0.0313 0.0388,0.0543 0,0.0229 -0.0173,0.0477 -0.0388,0.0548 -0.0232,0.008 -0.0393,-0.0145 -0.0393,-0.0548 0,-0.0403 0.016,-0.0621 0.0393,-0.0543 z m -17.005679,0.34054 c 0.004,-0.005 0.0164,0.004 0.0393,0.0227 0.0282,0.0234 0.0956,0.12127 0.15037,0.21808 0.0548,0.0968 0.21621,0.32257 0.35864,0.50126 0.14243,0.17868 0.25188,0.33669 0.24288,0.3514 -0.0318,0.0515 -0.0661,0.0247 -0.29973,-0.23823 -0.21629,-0.2434 -0.42112,-0.58282 -0.48162,-0.79737 -0.01,-0.0348 -0.0109,-0.053 -0.01,-0.0579 z m 17.221169,0.154 c 0.0153,0.006 0.0264,0.0265 0.0264,0.0579 0,0.0334 -0.0125,0.0685 -0.0279,0.078 -0.0336,0.0208 -0.0735,-0.0697 -0.0486,-0.11007 0.0154,-0.0249 0.0349,-0.0323 0.0501,-0.0258 z m 0.19172,0.009 c 0.007,-0.004 0.0184,0.003 0.0377,0.0191 0.0254,0.0213 0.0385,0.0509 0.0295,0.0661 -0.0315,0.051 -0.076,0.0288 -0.076,-0.0382 0,-0.0276 0.002,-0.043 0.009,-0.047 z m 0.24392,0.64441 c 0.0152,0 0.0364,0.0364 0.0475,0.0806 h -5.2e-4 c 0.0279,0.11117 -0.0387,0.17507 -0.0765,0.0734 -0.0299,-0.0805 -0.0156,-0.154 0.0295,-0.154 z m 1.03662,0.0419 c -0.0152,-0.004 -0.0302,-7.6e-4 -0.0419,0.0108 -0.0253,0.025 -0.0251,0.0524 5.1e-4,0.10025 h 5.2e-4 c 0.0418,0.0781 0.0901,0.085 0.11627,0.0165 0.0193,-0.0504 -0.0299,-0.11708 -0.0754,-0.12764 z m -1.42575,0.14572 c 0.0272,0 0.0432,0.022 0.0372,0.0522 -0.0121,0.0627 -0.0745,0.0891 -0.10284,0.0434 -0.0275,-0.0445 0.008,-0.0956 0.0656,-0.0956 z m 0.92604,0.23461 h 5.2e-4 c 0.006,-0.005 0.014,-0.005 0.0227,0 0.0168,0.0108 0.0239,0.0326 0.0139,0.0486 h -5.2e-4 c -0.0267,0.0433 -0.0455,0.0353 -0.0455,-0.0196 0,-0.0135 0.003,-0.0237 0.009,-0.0289 z m -0.3824,0.24133 c 0.033,0.001 0.0618,0.0293 0.0444,0.0574 -0.01,0.016 -0.0304,0.0289 -0.0455,0.0289 -0.0437,0 -0.067,-0.056 -0.032,-0.0775 0.0104,-0.006 0.0221,-0.009 0.0331,-0.009 z m 0.35812,0.27389 c 0.0261,0 0.047,0.0278 0.047,0.0625 0,0.0347 -0.021,0.0625 -0.047,0.0625 -0.0261,0 -0.047,-0.0278 -0.047,-0.0625 0,-0.0347 0.021,-0.0625 0.047,-0.0625 z m -1.00718,0.28318 c 0.0357,0.002 0.0853,0.0319 0.0853,0.0599 0,0.0177 -0.0203,0.032 -0.045,0.032 -0.0498,0 -0.096,-0.0569 -0.0687,-0.0842 0.006,-0.006 0.0165,-0.008 0.0284,-0.008 z m -17.198429,1.54668 c -0.0693,0.0428 0.35859,0.64157 0.75809,1.06092 0.56825,0.59648 1.19588,1.05438 2.02313,1.47639 0.36643,0.18693 0.5178,0.22856 0.5178,0.14263 0,-0.0205 -0.1689,-0.12185 -0.37517,-0.22531 -0.54649,-0.27412 -1.03924,-0.59127 -1.44177,-0.92863 -0.36586,-0.30663 -0.98914,-0.94593 -1.20561,-1.23661 -0.19049,-0.25573 -0.24257,-0.31043 -0.27647,-0.28939 z m 1.30069,0.32918 c 0.0366,9.9e-4 0.13393,0.0909 0.32453,0.29455 0.23663,0.25288 0.57756,0.5369 0.92449,0.77102 0.14276,0.0964 0.8744,0.44988 0.9679,0.46767 0.0344,0.007 0.0625,0.0317 0.0625,0.0558 0,0.10103 -0.1525,0.0556 -0.7152,-0.21239 -0.40512,-0.19293 -0.75611,-0.4416 -1.17202,-0.83096 -0.17834,-0.16696 -0.4098,-0.4594 -0.4098,-0.5178 0,-0.0184 0.005,-0.0282 0.0176,-0.0279 z m 15.409919,0.56896 h 5.1e-4 c 0.0212,0.008 0.0276,0.0731 0.009,0.16278 -0.016,0.0687 -0.0281,0.1829 -0.0284,0.25373 -0.002,0.3539 -0.36837,1.22947 -0.65991,1.57768 -0.0674,0.0806 -0.14305,0.18595 -0.16795,0.23409 -0.0356,0.0685 -0.0498,0.0767 -0.0646,0.0382 -0.0116,-0.0303 0.0547,-0.1612 0.17312,-0.34158 0.35048,-0.53374 0.56725,-1.06094 0.62735,-1.52497 0.0191,-0.14768 0.0484,-0.30236 0.0646,-0.34365 0.0175,-0.0445 0.0338,-0.0608 0.0465,-0.0563 z m -15.415079,0.89968 c -0.0103,0.004 -0.0147,0.0185 -0.007,0.0429 0.006,0.0248 0.12661,0.17096 0.2682,0.32505 0.37897,0.41241 0.8696,0.73981 1.4149,0.94464 0.1461,0.0549 0.31342,0.11897 0.37362,0.14211 0.12226,0.0469 0.33246,0.0443 0.32246,-0.004 -0.003,-0.0172 -0.0306,-0.036 -0.0615,-0.0419 -0.10208,-0.0194 -0.83371,-0.32187 -0.97772,-0.40411 -0.31577,-0.18034 -0.75022,-0.5042 -1.00355,-0.74827 -0.19301,-0.18587 -0.29732,-0.26852 -0.32815,-0.25683 z m 15.040939,1.04077 c 0.0291,0.0305 -0.0565,0.26356 -0.15141,0.41082 -0.0552,0.0857 -0.12352,0.19899 -0.15142,0.25218 -0.096,0.18284 -0.4955,0.68481 -0.64595,0.81132 -0.3195,0.26869 -0.67846,0.49546 -1.31258,0.82941 -0.12748,0.0671 -0.24055,0.12196 -0.25115,0.12196 -0.0106,0 0.14224,-0.16495 0.33951,-0.3669 0.43593,-0.44634 0.66833,-0.73667 0.92346,-1.15187 0.19152,-0.31164 0.19612,-0.31615 0.36897,-0.37052 0.0962,-0.0302 0.18169,-0.0478 0.19069,-0.0393 0.009,0.008 -0.0839,0.14592 -0.20516,0.30592 -0.14794,0.19506 -0.21023,0.30138 -0.18913,0.32246 0.0197,0.0197 0.0416,0.0209 0.0589,0.003 0.23672,-0.25652 0.40277,-0.46896 0.49247,-0.62942 0.0606,-0.10844 0.11986,-0.19776 0.13126,-0.19792 0.0114,-1.5e-4 0.1031,-0.0706 0.20412,-0.15709 0.10097,-0.0865 0.19041,-0.15116 0.19741,-0.14366 z m -14.062709,0.44545 c 0.01,-0.01 0.163,0.0593 0.33952,0.15399 0.17652,0.0947 0.50129,0.24229 0.72192,0.32815 0.22048,0.0859 0.44346,0.1798 0.49506,0.20877 0.0516,0.029 0.21941,0.18352 0.3731,0.34313 0.29267,0.30394 0.2929,0.30795 0.0486,0.26872 -0.043,-0.007 -0.2119,-0.0337 -0.37518,-0.0599 -0.46046,-0.074 -0.6563,-0.13168 -0.85937,-0.25321 -0.19741,-0.11806 -0.2243,-0.1441 -0.42582,-0.4098 -0.14678,-0.19353 -0.34411,-0.55349 -0.31781,-0.57981 z m 0.79685,1.15135 c 0.007,-0.007 0.12318,0.0231 0.2589,0.0662 0.13574,0.0431 0.39519,0.10083 0.57671,0.12815 0.18154,0.0273 0.34337,0.0617 0.35967,0.0765 0.0387,0.0352 -0.61113,0.0282 -0.7953,-0.009 -0.0773,-0.0155 -0.16437,-0.0288 -0.19327,-0.0295 -0.05,-0.001 -0.23251,-0.20672 -0.20671,-0.23254 z m 3.88555,0.11162 c 0.009,0.0142 0.005,0.0321 -0.008,0.0398 -0.0371,0.0217 -0.63203,0.20224 -0.78961,0.23978 -0.18866,0.0449 -0.99948,0.0707 -1.07798,0.0341 -0.0467,-0.0218 -0.0138,-0.0298 0.13126,-0.0315 0.37413,-0.004 0.83355,-0.0723 1.27899,-0.18965 0.24684,-0.065 0.4554,-0.10648 0.46509,-0.0925 z m -1.48776,0.0651 c 0.0109,4.2e-4 0.0201,0.004 0.0253,0.009 0.0104,0.0104 -0.008,0.0182 -0.0413,0.0165 -0.0364,-0.002 -0.0435,-0.009 -0.0186,-0.0186 0.0113,-0.005 0.0238,-0.007 0.0346,-0.006 z m -0.38241,0.0315 c 0.26798,0.004 0.28697,0.007 0.15038,0.0284 -0.22593,0.0349 -0.4154,0.0351 -0.4377,-0.002 -0.0124,-0.0202 0.0899,-0.0292 0.28732,-0.0269 z m -0.56069,0.0584 c 0.0692,0 0.25787,0.14062 0.25787,0.19224 0,0.019 -0.21125,0.0268 -0.56224,0.0207 -0.30941,-0.005 -0.56278,0.001 -0.56276,0.015 2e-5,0.0138 0.0528,0.0477 0.11731,0.0749 0.0981,0.0414 0.20422,0.0463 0.6506,0.0305 l 0.53331,-0.0191 0.14831,0.15089 0.14831,0.15038 -0.21291,0.0202 c -0.11712,0.0111 -0.41196,0.02 -0.65526,0.0202 l -0.44235,5.2e-4 -0.13591,-0.11266 c -0.21402,-0.17728 -0.55201,-0.53916 -0.43718,-0.46819 0.0148,0.009 0.14572,0.03 0.29042,0.0465 0.30653,0.0348 0.66249,2.2e-4 0.74259,-0.0724 0.0302,-0.0273 0.0839,-0.0496 0.11989,-0.0496 z m 4.63951,0.0388 c 0.0481,0.016 -0.5224,0.40019 -0.8816,0.59376 -0.26524,0.14294 -0.91086,0.39143 -1.24126,0.47749 -0.0961,0.025 -0.24633,0.0538 -0.33383,0.0641 -0.1549,0.0181 -0.157,0.0171 -0.0739,-0.0289 0.0469,-0.026 0.20892,-0.0778 0.35967,-0.11524 0.6001,-0.14915 1.23171,-0.43238 1.87482,-0.84077 0.14149,-0.0899 0.2747,-0.15748 0.2961,-0.15038 z m -1.16427,0.10593 c 0.0682,0.0689 -0.81399,0.51399 -1.34668,0.67955 -0.34603,0.10756 -0.57493,0.14622 -0.50953,0.0858 0.0163,-0.0151 0.2317,-0.0933 0.47852,-0.17363 0.27762,-0.0903 0.62271,-0.23393 0.90485,-0.37724 0.25088,-0.12742 0.46384,-0.22396 0.47284,-0.21446 z m -1.0697,0.11731 c 0.0375,10e-4 0.01,0.0307 -0.10077,0.0878 -0.22843,0.11799 -0.45215,0.17679 -0.87333,0.22893 v -5.2e-4 c -0.43862,0.0543 -0.39602,0.053 -0.45372,0.0165 -0.0646,-0.0409 -0.0336,-0.0479 0.46767,-0.10697 0.30052,-0.0354 0.49372,-0.077 0.6718,-0.14418 0.14827,-0.0559 0.25087,-0.0829 0.28835,-0.0816 z m 4.104659,0.14418 c 0.0561,0 0.0289,0.051 -0.0636,0.11937 -0.0512,0.0379 -0.18159,0.15086 -0.28939,0.25115 -0.41661,0.38762 -0.926179,0.71407 -1.513599,0.96945 -0.20167,0.0876 -0.3545,0.12298 -0.3545,0.0822 0,-0.0209 0.31982,-0.17701 0.54673,-0.26717 0.2389,-0.0949 0.976709,-0.59026 1.353929,-0.90899 0.16004,-0.13523 0.30429,-0.24598 0.32039,-0.24598 z m -1.440219,0.031 c 0.22466,0 -0.79048,0.60901 -1.45263,0.87126 -0.25783,0.10212 -0.51806,0.19469 -0.57826,0.20567 -0.14688,0.0269 -0.0932,-0.003 0.35967,-0.2005 0.20625,-0.0899 0.43843,-0.19124 0.51573,-0.22531 0.15132,-0.0667 0.69364,-0.37533 0.96015,-0.54622 0.09,-0.0577 0.17784,-0.1049 0.19534,-0.1049 z m -4.23178,0.27337 0.16278,0.0827 c 0.0897,0.0454 0.16335,0.0928 0.16329,0.10542 -6e-5,0.0126 -0.17242,0.071 -0.38292,0.1297 -0.21049,0.0587 -0.45999,0.11161 -0.55449,0.11731 -0.16597,0.0101 -0.18077,0.005 -0.42219,-0.16898 l -0.25012,-0.17984 0.12506,-0.007 c 0.0688,-0.004 0.35765,-0.0229 0.64182,-0.0429 z"
       sodipodi:nodetypes="ssssssscssscscccsscssssscsscsssscssscsscscssscscccsscsscscssscssccccccccccccscccccscscccccsscsccccsccsccccccccsccccsccsccccccccssccscccsccccssccccsccssssccscscsscsscscssscsscccccscccssscssccsssccscccccssscssssssscscsssscccscsscsccsccsssssccssscccsccsccccccsccccssccccsccsccssscscsssssssscccccssccccssscscccscccsscssscsssssccscccccssssssscccccsscscsscssssscsscssccsccsccccscsscccccsssssccscsssscsssscssssscssssssccscsscssscccscccsscccsccsccccsssccsscccsssssscccsssssssscscsssssssssscssccccccssscsccccccccsccsssccccccsscccccccccssccsssccsscccssscccccccscscccsscccssssssscssccscccccccccsccccssscsssscscsssssssssssscsccccsccscsccscsscscsccccscccsscsssssssccccsccsccccssccscccsscccccscccsccsssssscsscscssccsccsscsscscssccccsssccscccccscssssscssscssssscscssccccccccccscccccccsccssccsccsscscsscssscssssscsscscsccsscsscccsccscsssssssssccssssccssssscsssccccssscccssccssscssscssscccssccccssscscssscsccccssssscccscsssccscccsssssssccsscccccccsccccsscccscccsssssssccsscscccscscsssccscsssccccsssssscscssscsccssssscsscscccccsssssssssscccccssccccccsssccccscscsscccsssccccccccccccccccccccccccccsccccscccccccsscssscsssscccsccccccsscccscccscsccscccssccccccccsccscssccccsscsscssscccsscccscscccsssccsscssscssscssssccssssssssssssssssscssccsccccssccscccssssscsssscccccccccsscccsccccccsccsscsssssccsssccssssscscsssccsssccccccccsccccccccscccccccccscccssssssccsscccccccscccsscccscsssscscsscssssscsscscscccsscccccssscsscccsscsccsscsccccssccsscccccscsscssssssssccssccccsssssccssssssssssccccssccssccccsscccscccsscssssssscscssssssscsssccsssscssccsscccscscccscccccccccsssscccccccsccccsscsssscscscssssssccscssssssssssssssscssssccss" />
  </g>
</svg>
